<?xml version="1.0" encoding="UTF-8"?> <svg xmlns="http://www.w3.org/2000/svg" xmlns:xlink="http://www.w3.org/1999/xlink" width="150pt" height="175pt" viewBox="0 0 150 175" version="1.1"><g id="surface1"><path style=" stroke:none;fill-rule:evenodd;fill:rgb(30.588235%,33.72549%,35.294118%);fill-opacity:1;" d="M 134.609375 113.339844 L 89.703125 28.15625 L 75.625 54.886719 L 75.089844 55.957031 L 75.625 56.847656 L 105.207031 113.339844 Z M 134.609375 113.339844 "></path><path style=" stroke:none;fill-rule:evenodd;fill:rgb(30.588235%,33.72549%,35.294118%);fill-opacity:1;" d="M 90.59375 85.183594 L 59.40625 85.183594 L 74.910156 114.765625 Z M 90.59375 85.183594 "></path><path style=" stroke:none;fill-rule:evenodd;fill:rgb(0%,55.294118%,82.352941%);fill-opacity:1;" d="M 75.089844 55.957031 L 60.476562 28.15625 L 44.972656 57.5625 L 59.585938 85.363281 Z M 30.179688 85.363281 L 15.566406 113.339844 L 44.792969 113.339844 Z M 30.179688 85.363281 "></path><path style=" stroke:none;fill-rule:evenodd;fill:rgb(30.588235%,33.72549%,35.294118%);fill-opacity:1;" d="M 65.464844 18 L 74.910156 35.996094 L 84.355469 18 L 74.910156 0 Z M 65.464844 18 "></path><path style=" stroke:none;fill-rule:nonzero;fill:rgb(30.588235%,33.72549%,35.294118%);fill-opacity:1;" d="M 16.992188 157.359375 L 15.925781 153.972656 L 7.90625 153.972656 L 6.65625 157.359375 L 0.421875 157.359375 L 9.6875 134.367188 L 14.320312 134.367188 L 23.410156 157.359375 Z M 12.003906 141.496094 L 9.507812 149.339844 L 14.320312 149.339844 Z M 38.554688 136.507812 C 39.089844 137.21875 39.449219 137.753906 39.625 138.46875 C 39.804688 139.003906 39.980469 139.894531 39.980469 140.960938 L 34.28125 140.960938 C 34.101562 139.535156 33.386719 138.824219 32.140625 138.824219 C 31.605469 138.824219 31.070312 139.003906 30.714844 139.359375 C 30.359375 139.714844 30.179688 140.070312 30.179688 140.605469 C 30.179688 141.496094 30.894531 142.386719 32.140625 142.921875 L 34.992188 144.171875 C 36.953125 145.0625 38.199219 145.953125 39.089844 147.019531 C 39.980469 148.089844 40.339844 149.339844 40.339844 150.765625 C 40.339844 152.902344 39.625 154.683594 38.199219 155.933594 C 36.773438 157.179688 34.8125 157.714844 32.320312 157.714844 C 29.824219 157.714844 27.6875 157 26.261719 155.753906 C 24.65625 154.507812 23.945312 152.722656 23.945312 150.40625 L 23.945312 149.695312 L 29.824219 149.695312 C 29.824219 150.585938 30.003906 151.476562 30.539062 152.011719 C 30.894531 152.546875 31.605469 152.902344 32.320312 152.902344 C 32.855469 152.902344 33.566406 152.722656 33.921875 152.1875 C 34.457031 151.65625 34.636719 151.296875 34.636719 150.585938 C 34.636719 149.515625 33.746094 148.804688 32.140625 148.089844 L 29.46875 147.019531 C 28.398438 146.488281 27.328125 145.953125 26.617188 145.417969 C 25.011719 144.171875 24.300781 142.566406 24.300781 140.605469 C 24.300781 138.824219 25.011719 137.042969 26.617188 135.792969 C 28.21875 134.546875 30.179688 133.835938 32.320312 133.835938 C 34.992188 133.835938 37.128906 134.726562 38.554688 136.507812 Z M 48.890625 157.359375 L 43.011719 157.359375 L 43.011719 134.367188 L 48.890625 134.367188 L 48.890625 142.921875 L 56.378906 142.921875 L 56.378906 134.367188 L 62.257812 134.367188 L 62.257812 157.359375 L 56.378906 157.359375 L 56.378906 148.269531 L 48.890625 148.269531 Z M 48.890625 157.359375 "></path><path style=" stroke:none;fill-rule:nonzero;fill:rgb(30.588235%,33.72549%,35.294118%);fill-opacity:1;" d="M 103.957031 157.359375 L 98.078125 157.359375 L 98.078125 134.367188 L 103.957031 134.367188 Z M 113.582031 157.359375 L 107.699219 157.359375 L 107.699219 134.367188 L 113.582031 134.367188 L 113.582031 144.703125 L 120.175781 134.367188 L 126.414062 134.367188 L 118.75 145.773438 L 126.949219 157.359375 L 119.996094 157.359375 L 113.761719 147.378906 L 113.761719 157.359375 Z M 143.164062 157.359375 L 142.09375 153.972656 L 134.074219 153.972656 L 132.828125 157.359375 L 126.589844 157.359375 L 135.859375 134.367188 L 140.492188 134.367188 L 149.578125 157.359375 Z M 137.996094 141.496094 L 135.5 149.339844 L 140.3125 149.339844 Z M 137.996094 141.496094 "></path><path style=" stroke:none;fill-rule:evenodd;fill:rgb(0%,55.294118%,82.352941%);fill-opacity:1;" d="M 95.046875 133.835938 L 83.820312 158.070312 L 80.257812 150.40625 L 80.257812 149.871094 L 87.742188 133.835938 Z M 95.046875 133.835938 "></path><path style=" stroke:none;fill-rule:evenodd;fill:rgb(30.588235%,33.72549%,35.294118%);fill-opacity:1;" d="M 84 141.851562 L 76.335938 141.851562 L 80.257812 133.476562 Z M 84 141.851562 "></path><path style=" stroke:none;fill-rule:evenodd;fill:rgb(30.588235%,33.72549%,35.294118%);fill-opacity:1;" d="M 80.257812 150.230469 L 76.691406 158.070312 L 71.347656 146.488281 L 74.910156 138.46875 Z M 69.03125 141.851562 L 65.464844 133.835938 L 72.773438 133.835938 Z M 69.03125 141.851562 "></path><path style=" stroke:none;fill-rule:nonzero;fill:rgb(30.588235%,33.72549%,35.294118%);fill-opacity:1;" d="M 28.578125 165.199219 L 25.902344 174.820312 L 24.65625 174.820312 L 22.875 168.050781 L 21.09375 174.820312 L 19.84375 174.820312 L 17.171875 165.199219 L 18.597656 165.199219 L 20.378906 172.503906 L 22.160156 165.199219 L 23.230469 165.199219 L 25.011719 172.503906 L 26.792969 165.199219 Z M 33.210938 165.199219 L 36.773438 174.820312 L 35.347656 174.820312 L 34.28125 171.96875 L 30.894531 171.96875 L 29.824219 174.820312 L 28.398438 174.820312 L 31.960938 165.199219 Z M 31.25 170.722656 L 33.746094 170.722656 L 32.496094 167.160156 Z M 41.40625 171.257812 L 44.082031 174.820312 L 42.300781 174.820312 L 39.089844 170.367188 L 39.089844 174.820312 L 37.84375 174.820312 L 37.84375 165.199219 L 40.875 165.199219 C 42.121094 165.199219 42.832031 165.554688 43.546875 166.089844 C 44.082031 166.625 44.4375 167.335938 44.4375 168.40625 C 44.4375 169.476562 44.082031 170.367188 43.191406 170.902344 C 42.65625 171.078125 42.121094 171.257812 41.40625 171.257812 Z M 39.269531 166.625 L 39.269531 170.367188 L 40.160156 170.367188 C 41.941406 170.367188 42.832031 169.652344 42.832031 168.585938 C 42.832031 168.050781 42.65625 167.515625 42.300781 167.335938 C 41.941406 166.980469 41.40625 166.800781 40.695312 166.800781 L 39.269531 166.800781 Z M 51.03125 173.574219 L 51.03125 174.820312 L 45.863281 174.820312 L 45.863281 165.199219 L 51.03125 165.199219 L 51.03125 166.445312 L 47.289062 166.445312 L 47.289062 169.296875 L 51.03125 169.296875 L 51.03125 170.542969 L 47.289062 170.542969 L 47.289062 173.394531 L 51.03125 173.394531 Z M 59.40625 165.199219 L 59.40625 174.820312 L 57.980469 174.820312 L 57.980469 170.542969 L 53.882812 170.542969 L 53.882812 174.820312 L 52.457031 174.820312 L 52.457031 165.199219 L 53.882812 165.199219 L 53.882812 169.476562 L 57.804688 169.476562 L 57.804688 165.199219 Z M 65.824219 165.019531 C 67.246094 165.019531 68.496094 165.554688 69.386719 166.445312 C 70.277344 167.515625 70.8125 168.585938 70.8125 170.011719 C 70.8125 171.4375 70.277344 172.503906 69.386719 173.574219 C 68.316406 174.644531 67.246094 175 65.824219 175 C 64.398438 175 63.328125 174.464844 62.257812 173.574219 C 61.1875 172.683594 60.832031 171.4375 60.832031 170.011719 C 60.832031 168.585938 61.367188 167.515625 62.257812 166.445312 C 63.328125 165.554688 64.398438 165.019531 65.824219 165.019531 Z M 65.824219 173.753906 C 66.890625 173.753906 67.78125 173.394531 68.316406 172.683594 C 69.03125 171.96875 69.386719 171.078125 69.386719 170.011719 C 69.386719 168.941406 69.03125 168.050781 68.316406 167.335938 C 67.605469 166.625 66.714844 166.269531 65.824219 166.269531 C 64.929688 166.269531 64.039062 166.625 63.328125 167.335938 C 62.613281 168.050781 62.257812 168.941406 62.257812 170.011719 C 62.257812 171.078125 62.613281 171.96875 63.328125 172.683594 C 64.039062 173.394531 64.753906 173.753906 65.824219 173.753906 Z M 77.226562 165.199219 L 78.652344 165.199219 L 78.652344 171.96875 C 78.652344 172.863281 78.296875 173.574219 77.761719 174.109375 C 77.050781 174.820312 76.335938 175 75.445312 175 C 74.554688 175 73.839844 174.644531 73.128906 174.109375 C 72.59375 173.574219 72.238281 172.863281 72.238281 171.96875 L 72.238281 165.199219 L 73.664062 165.199219 L 73.664062 171.792969 C 73.664062 172.503906 73.839844 173.039062 74.199219 173.394531 C 74.554688 173.753906 75.089844 173.929688 75.625 173.929688 C 76.335938 173.929688 76.871094 173.574219 77.226562 173.039062 C 77.40625 172.863281 77.40625 172.503906 77.40625 171.96875 L 77.40625 165.199219 Z M 85.601562 167.695312 L 84.175781 167.695312 C 84.175781 167.160156 84 166.980469 83.820312 166.625 C 83.644531 166.445312 83.285156 166.269531 82.929688 166.269531 C 82.574219 166.269531 82.21875 166.445312 82.039062 166.625 C 81.859375 166.800781 81.683594 167.160156 81.683594 167.515625 C 81.683594 167.871094 81.859375 168.226562 82.039062 168.40625 C 82.21875 168.585938 82.574219 168.761719 83.285156 168.941406 C 83.820312 169.121094 84.355469 169.296875 84.535156 169.476562 C 84.890625 169.652344 85.070312 169.832031 85.246094 170.1875 C 85.601562 170.722656 85.78125 171.257812 85.78125 171.792969 C 85.78125 172.683594 85.601562 173.394531 84.890625 173.929688 C 84.355469 174.464844 83.644531 174.820312 82.753906 174.820312 C 81.859375 174.820312 81.148438 174.644531 80.613281 173.929688 C 80.078125 173.394531 79.722656 172.683594 79.722656 171.792969 L 81.148438 171.792969 C 81.328125 173.039062 81.859375 173.574219 82.753906 173.574219 C 83.285156 173.574219 83.644531 173.394531 84 173.039062 C 84.355469 172.683594 84.355469 172.328125 84.355469 171.792969 C 84.355469 171.078125 84 170.542969 83.109375 170.367188 L 82.753906 170.1875 L 82.394531 170.542969 C 81.859375 170.367188 81.503906 170.1875 81.328125 170.1875 C 81.148438 170.011719 80.96875 170.011719 80.792969 169.652344 C 80.433594 169.121094 80.078125 168.585938 80.078125 167.871094 C 80.078125 166.980469 80.257812 166.269531 80.96875 165.734375 C 81.503906 165.199219 82.21875 164.84375 82.929688 164.84375 C 83.644531 164.84375 84.355469 165.019531 84.710938 165.554688 C 85.246094 166.269531 85.601562 166.980469 85.601562 167.695312 Z M 88.632812 165.199219 L 88.632812 174.820312 L 87.207031 174.820312 L 87.207031 165.199219 Z M 98.257812 165.199219 L 98.257812 174.820312 L 96.832031 174.820312 L 92.019531 167.515625 L 92.019531 175 L 90.59375 175 L 90.59375 165.375 L 92.195312 165.375 L 97.007812 172.683594 L 97.007812 165.375 L 98.257812 165.375 Z M 103.601562 170.011719 L 109.660156 170.011719 C 109.660156 171.4375 109.125 172.683594 108.234375 173.574219 C 107.34375 174.464844 106.097656 175 104.671875 175 C 103.246094 175 102.175781 174.464844 101.109375 173.574219 C 100.214844 172.683594 99.683594 171.4375 99.683594 170.011719 C 99.683594 168.585938 100.214844 167.515625 101.109375 166.445312 C 102 165.554688 103.246094 165.019531 104.671875 165.019531 C 105.5625 165.019531 106.453125 165.199219 107.167969 165.734375 C 107.878906 166.269531 108.59375 166.800781 108.949219 167.695312 L 107.34375 167.695312 C 106.453125 166.800781 105.742188 166.445312 104.671875 166.445312 C 103.601562 166.445312 102.890625 166.800781 102.175781 167.515625 C 101.464844 168.226562 101.109375 169.121094 101.109375 170.1875 C 101.109375 171.257812 101.464844 171.96875 102.175781 172.863281 C 102.890625 173.574219 103.78125 173.929688 104.671875 173.929688 C 105.5625 173.929688 106.277344 173.574219 106.988281 173.039062 C 107.523438 172.683594 107.878906 172.148438 108.058594 171.4375 L 103.601562 171.4375 Z M 119.460938 173.574219 L 119.460938 174.820312 L 114.652344 174.820312 L 114.652344 165.199219 L 116.078125 165.199219 L 116.078125 173.574219 Z M 125.34375 173.574219 L 125.34375 174.820312 L 120.53125 174.820312 L 120.53125 165.199219 L 121.957031 165.199219 L 121.957031 173.574219 Z M 129.441406 171.078125 L 128.015625 171.078125 L 128.015625 175 L 126.589844 175 L 126.589844 165.375 L 129.976562 165.375 C 130.867188 165.375 131.582031 165.734375 131.9375 166.269531 C 132.472656 166.800781 132.828125 167.515625 132.828125 168.40625 C 132.828125 169.296875 132.648438 169.832031 132.117188 170.367188 C 131.757812 170.722656 131.402344 170.902344 131.046875 171.078125 C 130.511719 171.078125 129.976562 171.078125 129.441406 171.078125 Z M 128.015625 166.625 L 128.015625 169.832031 L 129.441406 169.832031 C 129.976562 169.832031 130.511719 169.652344 130.867188 169.296875 C 131.222656 168.941406 131.402344 168.585938 131.402344 168.050781 C 131.402344 166.980469 130.691406 166.445312 129.441406 166.445312 L 128.015625 166.445312 Z M 128.015625 166.625 "></path></g></svg> 